<svg height="512" viewBox="0 0 64 64" width="512" xmlns="http://www.w3.org/2000/svg"><path d="m18 21h2v4h-2z"/><path d="m27 30h4v2h-4z"/><path d="m18 14.343a3.02 3.02 0 0 0 .878 2.121l1.122 1.122v-2.586a1 1 0 0 1 .5-.868l7-4a1 1 0 0 1 .754-.1l2.746.733v-6.765h-13z"/><path d="m22 15.58v17.42a3 3 0 0 0 3 3h6v-2h-5a1 1 0 0 1 -1-1v-4a1 1 0 0 1 1-1h5v-15.165l-2.861-.763zm7 5.42h-5v-2h5z"/><path d="m44 15v2.586l1.122-1.122a3.02 3.02 0 0 0 .878-2.121v-1.343a9.011 9.011 0 0 0 -9-9h-4v7.3l10.258 2.736a1 1 0 0 1 .742.964z"/><path d="m44 21v4h1a1 1 0 0 0 1-1v-2a1 1 0 0 0 -1-1z"/><path d="m42 26v-10.232l-9-2.4v16.632h3v2h-3v3.949a10.013 10.013 0 0 0 9-9.949zm-8-7h2a1 1 0 0 0 2 0h2a3 3 0 0 1 -6 0z"/><circle cx="26" cy="45" r="1"/><circle cx="12" cy="46" r="1"/><path d="m4 49v11h7v-1.586l-.715-.715a2.951 2.951 0 0 1 -1.285.301 3 3 0 1 1 3-3 2.951 2.951 0 0 1 -.3 1.285l1.008 1.008a1 1 0 0 1 .292.707v2h2v-9.586l-1.715-1.714a2.951 2.951 0 0 1 -1.285.3 3 3 0 1 1 3-3 2.951 2.951 0 0 1 -.3 1.285l2.008 2.008a1 1 0 0 1 .292.707v10h1v-8a1 1 0 0 1 .293-.707l5.007-5.008a2.951 2.951 0 0 1 -.3-1.285 3 3 0 1 1 3 3 2.951 2.951 0 0 1 -1.285-.3l-4.715 4.714v7.586h5v-2.184a3 3 0 1 1 2 0v2.184h4v-20h-18a9.011 9.011 0 0 0 -9 9z"/><circle cx="26" cy="55" r="1"/><circle cx="9" cy="55" r="1"/><path d="m37.847 40h-4.847v12h3.133z"/><path d="m53.853 46.147a20.834 20.834 0 0 0 -13.992-6.1l-1.871 13.1a1 1 0 0 1 -.99.853h-4v6h26.977a20.851 20.851 0 0 0 -6.124-13.853z"/></svg>